<svg width="64" height="64" viewBox="0 0 64 64" fill="none" xmlns="http://www.w3.org/2000/svg">
<path fill-rule="evenodd" clip-rule="evenodd" d="M8 32.4435C8 33.3315 8.31604 34.1832 8.87858 34.8112C9.44113 35.4392 10.2041 35.7919 10.9997 35.7919H45.7538L32.8732 50.1635C32.31 50.7923 31.9935 51.6451 31.9935 52.5343C31.9935 53.4234 32.31 54.2762 32.8732 54.905C33.4365 55.5337 34.2004 55.8869 34.997 55.8869C35.7936 55.8869 36.5575 55.5337 37.1207 54.905L55.1187 34.8142C55.3981 34.5031 55.6197 34.1336 55.7709 33.7268C55.9222 33.32 56 32.8839 56 32.4435C56 32.003 55.9222 31.5669 55.7709 31.1601C55.6197 30.7533 55.3981 30.3838 55.1187 30.0728L37.1207 9.98198C36.5575 9.35323 35.7936 9 34.997 9C34.2004 9 33.4365 9.35323 32.8732 9.98198C32.31 10.6107 31.9935 11.4635 31.9935 12.3527C31.9935 13.2419 32.31 14.0947 32.8732 14.7234L45.7538 29.095H10.9997C10.2041 29.095 9.44113 29.4478 8.87858 30.0758C8.31604 30.7037 8 31.5554 8 32.4435Z" fill="#FAFAFA"/>
</svg>
