<svg width="64" height="64" viewBox="0 0 64 64" fill="none" xmlns="http://www.w3.org/2000/svg">
<path d="M9.55944 9.6282C10.5582 8.62836 11.9127 8.06668 13.325 8.06668C14.7374 8.06668 16.0919 8.62836 17.0907 9.6282L31.9667 24.5242L46.8427 9.6282C47.3341 9.11882 47.9218 8.71251 48.5716 8.433C49.2214 8.15348 49.9203 8.00636 50.6275 8.0002C51.3347 7.99405 52.0361 8.12899 52.6907 8.39715C53.3452 8.66532 53.9399 9.06133 54.44 9.5621C54.9401 10.0629 55.3356 10.6583 55.6034 11.3138C55.8712 11.9692 56.0059 12.6715 55.9998 13.3797C55.9937 14.0878 55.8467 14.7877 55.5676 15.4384C55.2884 16.089 54.8827 16.6776 54.374 17.1695L39.4979 32.0655L54.374 46.9615C55.3442 47.9674 55.881 49.3146 55.8689 50.713C55.8568 52.1114 55.2966 53.4491 54.3091 54.4379C53.3216 55.4267 51.9857 55.9876 50.5892 55.9998C49.1927 56.0119 47.8473 55.4744 46.8427 54.5029L31.9667 39.6069L17.0907 54.5029C16.0861 55.4744 14.7407 56.0119 13.3442 55.9998C11.9477 55.9876 10.6118 55.4267 9.62432 54.4379C8.6368 53.4491 8.07665 52.1114 8.06451 50.713C8.05238 49.3146 8.58923 47.9674 9.55944 46.9615L24.4355 32.0655L9.55944 17.1695C8.56093 16.1694 8 14.8131 8 13.3989C8 11.9847 8.56093 10.6284 9.55944 9.6282Z" fill="#FAFAFA"/>
</svg>
