<svg width="64" height="64" viewBox="0 0 64 64" fill="none" xmlns="http://www.w3.org/2000/svg">
<path d="M27.8734 36.8807C27.2994 36.362 26.2567 36.3687 25.5047 36.8847C25.324 37.0087 25.054 37.0067 24.9147 36.8793C24.7767 36.7547 24.8174 36.548 24.998 36.4247C25.18 36.2993 25.438 36.2993 25.5827 36.4307C25.9227 36.1933 26.26 35.9547 26.5967 35.7147C26.122 35.282 25.356 35.206 24.686 35.4573C24.5907 35.37 24.4954 35.284 24.3994 35.1953C24.0954 35.4067 23.79 35.616 23.484 35.824C23.5847 35.9153 23.6867 36.008 23.7894 36.0993C23.4287 36.576 23.4307 37.156 23.874 37.5573C24.1214 37.782 24.4534 37.9147 24.8227 37.9533C25.316 38.0067 25.8634 37.8893 26.29 37.5953C26.4714 37.472 26.73 37.472 26.8687 37.598C27.008 37.7247 26.9787 37.932 26.7974 38.0567C26.6167 38.1813 26.346 38.1787 26.2067 38.054C25.8647 38.284 25.5207 38.5127 25.174 38.7387C25.614 39.1373 26.362 39.2387 27.0174 39.03C27.136 39.1373 27.2527 39.246 27.372 39.3527C27.6794 39.1453 27.984 38.9373 28.2874 38.726C28.1721 38.6243 28.0583 38.5209 27.946 38.416C28.3474 37.9213 28.33 37.298 27.8734 36.8807ZM39.4154 25.1773C39.8494 25.1773 40.3034 24.9713 40.6254 24.5827C40.7627 24.418 40.9847 24.3867 41.1234 24.5127C41.2634 24.6387 41.27 24.8787 41.1334 25.0433C40.996 25.2087 40.7627 25.2393 40.624 25.114C40.364 25.4213 40.102 25.726 39.8387 26.0287C40.278 26.428 40.9387 26.4473 41.47 26.126L41.8254 26.448C42.0587 26.1727 42.2887 25.8967 42.5167 25.618L42.176 25.3093C42.4434 24.6947 42.3314 23.986 41.876 23.5707C41.3007 23.0507 40.4074 23.1907 39.8407 23.8707C39.7034 24.036 39.47 24.0667 39.3314 23.9413C39.192 23.8147 39.1974 23.5747 39.3327 23.41C39.472 23.246 39.6927 23.2127 39.8367 23.3427C40.0934 23.032 40.3474 22.7173 40.5974 22.402C40.1214 21.97 39.454 21.978 38.9167 22.3493L38.628 22.088C38.4007 22.3667 38.1694 22.6433 37.9367 22.918C38.0387 23.01 38.1407 23.1033 38.242 23.194C38.0054 23.784 38.0934 24.4453 38.538 24.8467C38.786 25.0727 39.0907 25.1827 39.4154 25.1773Z" fill="#FAFAFA"/>
<path d="M50.464 31.7953C50.9937 31.1524 51.5059 30.4953 52 29.8247C51.7927 28.1633 51.5653 26.4847 51.316 24.7947L51.23 24.7173L51.544 24.2573L50.7573 23.5427C46.8687 20.0127 42.9813 16.4833 39.0927 12.9547L38.0413 12L37.2427 13.1713C35.8819 15.1578 34.4116 17.067 32.8387 18.89C32.9247 18.5247 33.0187 18.148 33.1213 17.7567C33.542 16.16 33.0493 15.076 32.5613 14.4487C31.6527 13.2787 29.9327 12.6333 27.716 12.6333C21.4307 12.6333 12.3373 17.576 12.3373 26.5127C12.3373 27.7393 13.1547 28.5967 14.324 28.5967C15.1873 28.5967 16.1847 28.114 17.3047 27.1573C17.41 27.5193 17.5687 27.8613 17.8007 28.152C18.2447 28.7093 18.8993 29.0167 19.6447 29.0167C19.812 29.0167 19.984 29.002 20.1607 28.9713C20.24 29.356 20.3853 29.7367 20.6173 30.0687C18.4495 31.6312 16.1962 33.0716 13.868 34.3833L12.3887 35.2133L13.5693 36.2853C13.328 36.4347 13.086 36.5847 12.8453 36.73C12.5787 37.962 12.2967 39.178 12 40.372C16.27 44.2493 20.5393 48.1233 24.8087 52C28.5258 49.9778 32.1219 47.7407 35.5787 45.3C35.58 45.302 35.58 45.3047 35.5813 45.306C35.9027 45.864 36.4267 46.2453 37.1433 46.4487C35.9027 47.8813 35.4567 49.1087 35.8167 50.1107C36.104 50.9087 36.8433 51.3853 37.7953 51.3853C46.786 51.3853 51.758 42.3467 51.758 36.0987C51.758 34.6087 51.4613 33.3247 50.9 32.3867C50.7723 32.1771 50.6264 31.9792 50.464 31.7953ZM32.3507 21.294C34.498 18.944 36.4827 16.4673 38.2613 13.858C42.15 17.3873 46.038 20.916 49.926 24.4467C48.3122 26.8029 46.549 29.0533 44.6473 31.184C44.0313 31.314 43.4493 31.4267 42.916 31.5133C44.5813 29.7187 46.1593 27.8553 47.608 25.9027L47.2193 25.55C46.7893 25.16 46.7273 24.462 47.068 23.986C47.1707 23.8407 47.274 23.6973 47.3767 23.5533C44.784 21.2013 42.192 18.8473 39.6013 16.4953L39.2927 16.928C38.9513 17.4027 38.316 17.4687 37.888 17.0787L37.4987 16.7273C35.8453 18.9553 34.0327 21.074 32.1007 23.0953C32.1587 22.5527 32.2393 21.9547 32.3507 21.294ZM37.0473 27.8293C35.6867 26.5933 33.7813 26.314 32.0767 26.8753C32.0253 26.54 31.9513 25.8367 31.9853 24.73C34.0191 22.6849 35.9207 20.5125 37.6787 18.226C38.3407 18.5693 39.128 18.4927 39.7093 18.018L46.028 23.7533C45.7307 24.4853 45.8027 25.344 46.232 25.992C44.6987 27.994 43.0347 29.904 41.2733 31.7353C40.5346 31.8176 39.792 31.861 39.0487 31.8653C38.836 31.8653 38.648 31.86 38.4727 31.8527C38.712 30.418 38.2207 28.894 37.0473 27.8293ZM19.788 27.778C19.7413 27.782 19.6893 27.792 19.6453 27.792C18.1553 27.792 18.3013 25.6567 18.4593 24.6227C19.2813 23.804 20.0547 22.9493 20.862 22.1413C21.714 21.2733 22.6093 20.452 23.6167 19.7973C24.6233 19.148 25.7667 18.6873 27.006 18.5727C25.768 18.4447 24.474 18.7673 23.3707 19.386C22.2533 19.9933 21.2993 20.8347 20.422 21.7133C19.5507 22.6013 18.7513 23.54 17.946 24.4633C17.1347 25.3747 16.332 26.2893 15.3527 27.0427C14.9413 27.268 14.596 27.3713 14.3233 27.3713C13.8267 27.3713 13.568 27.0367 13.568 26.512C13.568 18.154 22.2527 13.8573 27.7147 13.8573C30.5813 13.8573 32.5613 15.0427 31.9267 17.4467C30.088 24.432 30.9333 27.4447 30.9333 27.4447C30.2133 28.788 28.8253 29.2247 28.8253 29.2247C28.069 29.0207 27.2887 28.9187 26.5053 28.9213C24.936 28.9213 23.826 29.3107 23.826 29.3107C23.2393 29.6427 22.786 29.7767 22.436 29.7767C21.1693 29.7767 21.2653 28.0113 21.336 27.4C21.5033 27.3213 21.666 27.236 21.8227 27.144C22.4507 26.7827 23.0053 26.3293 23.5467 25.8853C24.0813 25.4333 24.6013 24.982 25.152 24.5853C25.7047 24.1947 26.2993 23.8693 27.0047 23.7387C26.8263 23.7069 26.645 23.6951 26.464 23.7033C25.92 23.728 25.374 23.92 24.8987 24.178C24.2513 24.52 23.692 24.972 23.1493 25.4167C22.614 25.872 22.0953 26.328 21.5553 26.7473C21.0173 27.1607 20.45 27.5273 19.788 27.778ZM33.2833 41.45C30.9919 43.1154 28.6064 44.6473 26.1387 46.038C22.2507 42.5073 18.3633 38.9807 14.4747 35.4493C16.9479 34.0559 19.3386 32.5207 21.6347 30.8513C21.8847 30.944 22.152 31.0027 22.4367 31.0027C22.7287 31.0027 23.0347 30.952 23.3573 30.8533C21.5139 32.2467 19.6041 33.55 17.6347 34.7587C17.764 34.8767 17.8947 34.9947 18.0233 35.1133C18.4513 35.502 18.38 36.0773 17.8573 36.386C17.6973 36.4793 17.5387 36.5733 17.38 36.6653L25.156 43.7247C25.316 43.6313 25.474 43.5393 25.6333 43.4433C26.1567 43.1353 26.9267 43.1927 27.3553 43.5813L27.744 43.936C29.7731 42.6885 31.7389 41.3409 33.634 39.898C33.3807 40.46 33.2647 40.9787 33.2833 41.45ZM34.0787 38.2533C32.0796 39.8389 29.998 41.3177 27.8427 42.6833C27.128 42.2947 26.1813 42.23 25.378 42.5007L19.0587 36.7653C19.58 36.238 19.6647 35.522 19.288 34.9207C21.5929 33.4624 23.814 31.8757 25.9407 30.168C26.1207 30.1553 26.3073 30.1467 26.506 30.1467C27.1794 30.1444 27.8502 30.2316 28.5007 30.406L28.6147 30.4373C28.2867 31.8173 28.6793 33.272 29.8653 34.3487C30.9547 35.3367 32.4793 35.79 33.958 35.6753C34.172 36.6533 34.16 37.5587 34.0787 38.2533ZM37.7947 50.1607C36.9753 50.1607 36.6247 49.5367 37.27 48.3753C38.0267 47.408 38.9433 46.612 39.856 45.81C40.7847 45.01 41.7287 44.214 42.6227 43.3487C43.5053 42.4767 44.3527 41.5293 44.9633 40.418C45.5853 39.3213 45.9107 38.0347 45.782 36.804C45.666 38.036 45.204 39.1733 44.55 40.1747C43.8913 41.1753 43.0647 42.0653 42.192 42.9127C41.3793 43.714 40.52 44.4827 39.6973 45.2993C39.38 45.3473 38.9613 45.394 38.5307 45.394C37.5087 45.394 36.43 45.128 36.5173 43.9913C36.7693 43.3273 37.1407 42.7593 37.558 42.22C37.98 41.6833 38.4387 41.168 38.8967 40.636C39.3447 40.096 39.7993 39.54 40.1427 38.8973C40.488 38.2673 40.7167 37.5127 40.5847 36.804C40.454 37.5053 40.1267 38.0967 39.734 38.646C39.3353 39.1933 38.8813 39.7107 38.4253 40.2427C37.9793 40.7813 37.5227 41.3327 37.16 41.9567C37.0666 42.1135 36.9809 42.2748 36.9033 42.44C36.6992 42.463 36.4941 42.475 36.2887 42.476C35.2473 42.476 33.7353 42.1433 34.9807 39.964C34.9807 39.964 35.8007 37.6527 35.0673 34.9947C35.0673 34.9947 35.506 33.6147 36.8567 32.8987C36.8567 32.8987 37.552 33.0913 39.0487 33.0913C40.6767 33.0913 43.2533 32.8633 46.9153 31.9107C47.1956 31.8351 47.4844 31.7954 47.7747 31.7927C53.6333 31.7927 50.058 50.1607 37.7947 50.1607Z" fill="#FAFAFA"/>
</svg>
