<svg width="64" height="64" viewBox="0 0 64 64" fill="none" xmlns="http://www.w3.org/2000/svg">
<path d="M43.7077 15.1595C43.5593 14.3769 43.1061 13.6853 42.4477 13.2369C38.5663 10.5967 33.913 9.33149 29.2291 9.64284C24.5452 9.95419 20.1003 11.8242 16.6025 14.9548C13.1047 18.0855 10.7553 22.2967 9.92859 26.9176C9.10189 31.5384 9.84547 36.303 12.0408 40.4523C14.2362 44.6015 17.7571 47.8966 22.0425 49.8126C26.3279 51.7286 31.1312 52.1552 35.6873 51.0246C40.2433 49.8939 44.2898 47.271 47.1822 43.5737C48.6601 41.6845 49.7933 39.5702 50.5482 37.3279L51.8783 40.3091C52.2126 41.0209 52.8129 41.5732 53.5501 41.8473C54.2873 42.1213 55.1025 42.0953 55.8207 41.7747C56.5389 41.4542 57.1027 40.8647 57.391 40.133C57.6792 39.4012 57.669 38.5856 57.3624 37.8614L52.8333 27.71C52.6777 27.3423 52.4502 27.0093 52.1644 26.7306C51.8785 26.4518 51.5399 26.2328 51.1684 26.0865C50.7969 25.9401 50.3999 25.8693 50.0007 25.8782C49.6015 25.8871 49.2081 25.9755 48.8435 26.1382C48.5315 26.2774 47.9367 26.5506 47.6583 26.7306C47.3799 26.9106 38.0148 33.089 38.0148 33.089C37.6825 33.3016 37.3953 33.5776 37.1697 33.9011C36.944 34.2247 36.7843 34.5895 36.6997 34.9748C36.615 35.3601 36.6071 35.7583 36.6764 36.1466C36.7456 36.535 36.8907 36.9059 37.1032 37.2382C37.3158 37.5705 37.5918 37.8576 37.9153 38.0833C38.2389 38.3089 38.6037 38.4686 38.989 38.5532C39.3743 38.6379 39.7725 38.6458 40.1608 38.5766C40.5492 38.5073 40.9201 38.3623 41.2524 38.1497L44.6536 35.9737C44.1221 37.3669 43.3824 38.6825 42.4511 39.873C40.3852 42.5137 37.4951 44.3872 34.241 45.1948C30.9869 46.0025 27.5562 45.698 24.4952 44.3297C21.4343 42.9615 18.9194 40.6082 17.351 37.6448C15.7826 34.6815 15.2511 31.2785 15.841 27.978C16.431 24.6775 18.1085 21.6694 20.6063 19.4328C23.1041 17.1963 26.2786 15.86 29.624 15.6368C32.9693 15.4137 36.2932 16.3165 39.0659 18.2014C39.7243 18.6499 40.5338 18.8184 41.3164 18.67C42.099 18.5216 42.7906 18.0684 43.2391 17.41C43.6875 16.7517 43.8561 15.9422 43.7077 15.1595Z" fill="#FAFAFA"/>
</svg>
