<svg width="64" height="64" viewBox="0 0 64 64" fill="none" xmlns="http://www.w3.org/2000/svg">
<path fill-rule="evenodd" clip-rule="evenodd" d="M32 8C18.728 8 8 18.8 8 32C8 38.3652 10.5286 44.4697 15.0294 48.9706C17.258 51.1992 19.9038 52.967 22.8156 54.1731C25.7274 55.3792 28.8483 56 32 56C38.3652 56 44.4697 53.4714 48.9706 48.9706C53.4714 44.4697 56 38.3652 56 32C56 28.8483 55.3792 25.7274 54.1731 22.8156C52.967 19.9038 51.1992 17.258 48.9706 15.0294C46.742 12.8008 44.0962 11.033 41.1844 9.82689C38.2726 8.62078 35.1517 8 32 8ZM42.8 32C42.8 33.632 42.656 35.216 42.464 36.8H50.576C50.96 35.264 51.2 33.656 51.2 32C51.2 30.344 50.96 28.736 50.576 27.2H42.464C42.656 28.784 42.8 30.368 42.8 32ZM41.528 41.6C40.76 44.6 39.656 47.48 38.216 50.144C42.5939 48.6368 46.2828 45.6039 48.608 41.6H41.528ZM26.384 36.8H37.616C37.832 35.216 38 33.632 38 32C38 30.368 37.832 28.76 37.616 27.2H26.384C26.144 28.76 26 30.368 26 32C26 33.632 26.144 35.216 26.384 36.8ZM27.416 41.6C28.4 45.032 30.008 48.224 32 51.104C33.992 48.224 35.6 45.032 36.584 41.6H27.416ZM15.392 22.4H22.4C23.24 19.4 24.32 16.52 25.76 13.856C21.3795 15.3476 17.6933 18.3853 15.392 22.4ZM22.4 41.6H15.392C17.7076 45.6025 21.3887 48.636 25.76 50.144C24.32 47.48 23.24 44.6 22.4 41.6ZM12.8 32C12.8 33.656 13.04 35.264 13.424 36.8H21.536C21.344 35.216 21.2 33.632 21.2 32C21.2 30.368 21.344 28.784 21.536 27.2H13.424C13.04 28.736 12.8 30.344 12.8 32ZM36.584 22.4C35.6 18.968 33.992 15.752 32 12.872C30.008 15.752 28.4 18.968 27.416 22.4H36.584ZM41.528 22.4H48.608C46.304 18.416 42.632 15.368 38.216 13.856C39.6646 16.5582 40.7769 19.4275 41.528 22.4Z" fill="#FAFAFA"/>
</svg>
