<svg width="64" height="65" viewBox="0 0 64 65" fill="none" xmlns="http://www.w3.org/2000/svg">
<path fill-rule="evenodd" clip-rule="evenodd" d="M9.06008 9.28168C9.17537 7.43705 10.705 6 12.5533 6H52.1588C54.007 6 55.5366 7.43706 55.6519 9.28168L58.5269 55.2817C58.6529 57.2966 57.0526 59 55.0338 59H9.67827C7.65939 59 6.05915 57.2966 6.18508 55.2817L9.06008 9.28168ZM21.2791 10.1154C22.0438 9.79676 22.922 10.1584 23.2406 10.9231C24.0904 12.9626 25.3075 14.4623 26.8008 15.4578C28.294 16.4533 30.1466 17 32.356 17C34.5655 17 36.418 16.4533 37.9112 15.4578C39.4045 14.4623 40.6216 12.9626 41.4714 10.9231C41.79 10.1584 42.6682 9.79676 43.4329 10.1154C44.1976 10.434 44.5592 11.3122 44.2406 12.0769C43.195 14.5865 41.6262 16.5868 39.5753 17.954C37.5245 19.3212 35.0747 20 32.356 20C29.6373 20 27.1875 19.3212 25.1367 17.954C23.0858 16.5868 21.5171 14.5865 20.4714 12.0769C20.1528 11.3122 20.5144 10.434 21.2791 10.1154ZM26.7848 30.2984C28.2191 28.9069 30.1881 28.25 32.356 28.25C34.5689 28.25 36.5309 29 37.9435 30.4125C39.356 31.8251 40.106 33.7871 40.106 36C40.106 39.1068 37.8533 40.6385 36.3563 41.6562L36.2547 41.7254C35.4572 42.2675 34.8647 42.6703 34.4332 43.1363C34.0459 43.5546 33.856 43.9556 33.856 44.5V46.5C33.856 47.3284 33.1844 48 32.356 48C31.5276 48 30.856 47.3284 30.856 46.5V44.5C30.856 43.0444 31.4474 41.9454 32.2319 41.0981C32.9057 40.3704 33.7681 39.7862 34.4713 39.3098L34.6375 39.1971C36.2659 38.0898 37.106 37.371 37.106 36C37.106 34.4748 36.6001 33.3118 35.8222 32.5339C35.0442 31.7559 33.8812 31.25 32.356 31.25C30.7858 31.25 29.6298 31.7181 28.8737 32.4516C28.125 33.1779 27.606 34.3215 27.606 36C27.606 36.8284 26.9344 37.5 26.106 37.5C25.2776 37.5 24.606 36.8284 24.606 36C24.606 33.6785 25.343 31.6971 26.7848 30.2984ZM30.106 51.75C30.106 50.5074 31.1134 49.5 32.356 49.5C33.5987 49.5 34.606 50.5074 34.606 51.75C34.606 52.9926 33.5987 54 32.356 54C31.1134 54 30.106 52.9926 30.106 51.75Z" fill="#2D3047"/>
<path d="M33.106 51.75C33.106 52.1642 32.7702 52.5 32.356 52.5C31.9418 52.5 31.606 52.1642 31.606 51.75C31.606 51.3358 31.9418 51 32.356 51C32.7702 51 33.106 51.3358 33.106 51.75Z" fill="#2D3047"/>
<path fill-rule="evenodd" clip-rule="evenodd" d="M12.5533 6C10.705 6 9.17537 7.43705 9.06008 9.28168L6.18508 55.2817C6.05915 57.2966 7.65939 59 9.67827 59H55.0338C57.0526 59 58.6529 57.2966 58.5269 55.2817L55.6519 9.28168C55.5366 7.43706 54.007 6 52.1588 6H12.5533ZM6.06593 9.09454C6.28003 5.66881 9.12086 3 12.5533 3H52.1588C55.5912 3 58.432 5.66882 58.6461 9.09454L61.5211 55.0945C61.755 58.8366 58.7831 62 55.0338 62H9.67827C5.92893 62 2.95705 58.8366 3.19093 55.0945L6.06593 9.09454ZM21.2791 10.1154C22.0438 9.79676 22.922 10.1584 23.2406 10.9231C24.0904 12.9626 25.3075 14.4623 26.8008 15.4578C28.294 16.4533 30.1466 17 32.356 17C34.5655 17 36.418 16.4533 37.9112 15.4578C39.4045 14.4623 40.6216 12.9626 41.4714 10.9231C41.79 10.1584 42.6682 9.79676 43.4329 10.1154C44.1976 10.434 44.5592 11.3122 44.2406 12.0769C43.195 14.5865 41.6262 16.5868 39.5753 17.954C37.5245 19.3212 35.0747 20 32.356 20C29.6373 20 27.1875 19.3212 25.1367 17.954C23.0858 16.5868 21.5171 14.5865 20.4714 12.0769C20.1528 11.3122 20.5144 10.434 21.2791 10.1154ZM26.7848 30.2984C28.2191 28.9069 30.1881 28.25 32.356 28.25C34.5689 28.25 36.5309 29 37.9435 30.4125C39.356 31.8251 40.106 33.7871 40.106 36C40.106 39.1068 37.8533 40.6385 36.3563 41.6562L36.2547 41.7254C35.4572 42.2675 34.8647 42.6703 34.4332 43.1363C34.0459 43.5546 33.856 43.9556 33.856 44.5V46.5C33.856 47.3284 33.1844 48 32.356 48C31.5276 48 30.856 47.3284 30.856 46.5V44.5C30.856 43.0444 31.4474 41.9454 32.2319 41.0981C32.9057 40.3704 33.7681 39.7862 34.4713 39.3098C34.5278 39.2716 34.5833 39.234 34.6375 39.1971C36.2659 38.0898 37.106 37.371 37.106 36C37.106 34.4748 36.6001 33.3118 35.8222 32.5339C35.0442 31.7559 33.8812 31.25 32.356 31.25C30.7858 31.25 29.6298 31.7181 28.8737 32.4516C28.125 33.1779 27.606 34.3215 27.606 36C27.606 36.8284 26.9344 37.5 26.106 37.5C25.2776 37.5 24.606 36.8284 24.606 36C24.606 33.6785 25.343 31.6971 26.7848 30.2984ZM30.106 51.75C30.106 50.5074 31.1134 49.5 32.356 49.5C33.5987 49.5 34.606 50.5074 34.606 51.75C34.606 52.9926 33.5987 54 32.356 54C31.1134 54 30.106 52.9926 30.106 51.75ZM32.356 52.5C32.7702 52.5 33.106 52.1642 33.106 51.75C33.106 51.3358 32.7702 51 32.356 51C31.9418 51 31.606 51.3358 31.606 51.75C31.606 52.1642 31.9418 52.5 32.356 52.5Z" fill="#5CFF7F"/>
</svg>
